<?xml version="1.0" encoding="UTF-8"?>
<svg id="Layer_3" data-name="Layer 3" xmlns="http://www.w3.org/2000/svg" viewBox="0 0 1224.19 246.75">
  <path d="M131.31,117.36c-22-14.02-57.31-27.57-71.09-39.9-13.78-12.33-15.96-32.4.97-44.49s37.24-6.04,52.47,4.11c15.23,10.16,32.88,34.34,41.59,51.5l-5.8-55.61s-21.76-12.33-58.27-10.88c-36.51,1.45-59.73,18.14-62.14,44.49s10.88,39.17,30.95,51.99c20.07,12.82,47.88,25.39,64.8,37.24s20.55,28.29,12.82,44.98-25.87,17.41-49.09,12.82-39.41-28.77-47.88-41.35c-8.46-12.57-17.89-34.58-17.89-34.58l4.59,72.54s36.51,12.33,66.25,11.61c29.74-.73,58.03-9.19,67.22-38.2s-7.5-52.23-29.5-66.25Z"/>
  <path d="M276.56,113.65s14.03-8.2,12.39-20.04-19.49-18.77-48.28-15.49c-28.79,3.28-45.73,13.66-53.56,31.34-7.83,17.67-7.17,35.53-1.03,52.47,0,0-14.45,10.75-14.09,30.24.36,19.49,16.76,30.24,36.8,28.42,20.04-1.82,35.89-9.47,46.28-24.23,10.38-14.76,16.4-38.08,18.04-52.47v74.7h32.61s-14.39-17.49-20.59-39.9c-6.19-22.41-8.75-51.92-8.56-65.04ZM190.38,117.48c8.2-17.67,20.77-24.78,36.62-27.88,15.85-3.1,28.79,2.19,29.15,11.66.36,9.47-6.38,17.13-18.04,26.42-11.66,9.29-37.53,20.95-49.92,32.61,0,0-6.01-25.14,2.19-42.82ZM267.27,151c-3.64,11.48-10.93,28.97-25.32,38.44s-38.44,8.75-40.26-6.19c-1.82-14.94,3.1-25.87,16.94-38.26,13.85-12.39,54.66-30.06,54.66-30.06-.36,10.75-2.37,24.6-6.01,36.07Z"/>
  <path d="M397.8,78.12c-23.17-1.4-38.49,6.63-51.7,21.99v-22.8l-43.18,21.18s12.58,8.79,12.98,31.36c.4,22.57-.8,88.49-.8,88.49h43.35s-8.19-5.99-11.39-31.76c-3.2-25.77-1.4-82.1-1.4-82.1,0,0,12.18-13.98,28.36-16.58s29.96,7.39,31.36,25.77c1.4,18.38-5.19,34.96-12.98,54.13s-22.77,51.54-22.77,51.54h42.75s-2.4-20.57,4-38.15c6.39-17.58,19.98-41.55,18.78-62.52-1.2-20.97-14.18-39.15-37.35-40.55Z"/>
  <path d="M573.09,24.81l-41.98,20.8s9.45,9.27,11.35,22.69,1.32,30.44,1.32,30.44c0,0-17.96-21.43-41.98-21.43s-43.68,15.57-53.89,42.99c-10.21,27.42-4.35,64.29,11.16,81.12,15.51,16.83,32.14,21.37,50.3,19.1s32.9-17.4,32.9-17.4v15.13h43.11s-11.53-14.94-11.53-36.12-.76-157.32-.76-157.32ZM543.03,197.25c-9.27,13.61-34.79,18.15-49.16,6.43-14.37-11.72-18.91-37.82-18.15-64.48.76-26.66,15.13-52,34.6-52.94,19.48-.95,33.66,18.53,33.66,18.53l-.95,92.46Z"/>
  <path d="M706.09,93.52c-21.06-14.76-46.61-23.58-80.09-6.3-16.41,8.47-30.42,26.82-34.38,53.99-3.96,27.18,12.78,58.49,36.36,70.37,23.58,11.88,48.05,12.42,68.21.9s32.04-28.26,35.82-50.39c3.78-22.14-4.86-53.81-25.92-68.57ZM688.81,213.03c-17.4,7.22-34.2-4.5-47.69-21.96-13.5-17.46-21.78-45.71-22.5-66.59-.72-20.88,8.63-34.64,17.82-38.25,15.84-6.21,27.9.99,39.96,12.69s22.68,33.84,27.72,56.15c5.04,22.32,2.1,50.73-15.3,57.95Z"/>
  <path d="M781.32,183.43c-1.18-24.83-.34-105.71-.34-105.71l-42.91,20.23s13.46,14.98,13.46,35.84-1.68,84.47-1.68,84.47h43.58s-10.94-10-12.12-34.83Z"/>
  <circle cx="763.99" cy="45.95" r="19.86"/>
  <path d="M1201.74,218.26s-10.94-10-12.11-34.83c-1.18-24.83-.34-105.71-.34-105.71l-42.91,20.23s13.46,14.98,13.46,35.84-1.68,84.47-1.68,84.47h43.58Z"/>
  <path d="M1172.29,65.81c10.97,0,19.86-8.89,19.86-19.86s-8.89-19.86-19.86-19.86-19.86,8.89-19.86,19.86,8.89,19.86,19.86,19.86Z"/>
  <path d="M843.04,191.46c-4.28-25.19-3.15-55.41-3.15-55.41v-54.53h23.8v-3.27l-23.65.03v-35.92h-2.28s-1.84,8.26-13.97,20.9-30.35,16.25-30.35,16.25v2.2h16.91v77.76c0,23.55,6.49,35.51,14.3,44.58,7.81,9.07,26.19,15.11,39.04,15.11v-2.27s-16.37-.25-20.65-25.44Z"/>
  <path d="M977.42,188.01c-21.49,11.01-48.74,9.26-64.81-5.07s-25.33-36.86-22.71-59.05c2.62-22.19,14.85-38.78,36.16-42.1,21.31-3.32,39.31,12.4,46.82,21.66,7.51,9.26,16.25,31.27,16.25,31.27v-42.8s-22.01-15.9-59.22-13.98c-37.21,1.92-54.33,26.38-62.72,46.47-8.39,20.09-6.99,52.58,14.67,74.77,21.66,22.19,43.67,24.56,67.26,19.97,23.58-4.59,37.39-19.97,44.2-32.89,6.81-12.93,8.73-25.68,9.08-33.72,0,0-3.49,24.46-24.98,35.46Z"/>
  <path d="M1111.62,81.13c-20.81-8.29-49.92-1.94-66.15,19.58V23.98l-43.07,21.52s13.61,7.23,13.61,33.69-1.76,139.97-1.76,139.97h44.45s-10.23-8.39-12.17-31.85c-1.94-23.46-.53-83.08-.53-83.08,0,0,11.99-17.46,33.51-16.93,21.52.53,28.22,19.93,27.52,35.1s-6,31.04-13.05,45.68c-7.06,14.64-22.22,51.07-22.22,51.07h43.54s-3.77-18.34,1.41-32.24c5.18-13.9,20.27-44.3,20.97-63.15.71-18.85-5.25-34.35-26.06-42.64Z"/>
</svg>