<?xml version="1.0" encoding="UTF-8"?>
<svg id="Layer_3" data-name="Layer 3" xmlns="http://www.w3.org/2000/svg" viewBox="0 0 996.8 186.17">
  <path d="M23.95,107.86c8.29,6.88,33.3,16.7,35.86,2.17,1.07-6.05-1.68-8.89-9.28-11.46-7.6-2.57-12.25-7.21-9.88-15.8,2.37-8.59,12.54-10.37,22.52-10.27,9.97.1,15.8,4.35,19.36,9.28,3.56,4.94,3.75,9.48,3.75,9.48l21.63-5.73s-3-23.71-28.93-29.71-48.68,2.29-56.97,15.87c-8.29,13.58-6.35,29.28,1.94,36.16Z"/>
  <path d="M94.5,107.79c-9.45-3.87-25.52-8.13-28.83,3.31-1.39,4.79.85,8.79,6.43,10.58,5.58,1.8,13.14,3.78,13.52,11.91s-6.71,15.5-21.36,15.97-21.83-5.39-25.14-11.15c-3.31-5.77-4.44-10.3-4.44-10.3l-22.3,5.39s3.88,16.92,15.03,25.05c11.15,8.13,25.9,11.72,47.44,8.6,21.55-3.12,32.42-17.77,33.83-32.04,1.42-14.27-4.73-23.44-14.18-27.31Z"/>
  <path d="M188.85,54.58c-13.77-2.49-36.11.22-47.72,10.74-11.6,10.52-13.23,21.58-13.23,21.58l21.8,6.29c4.23-14.32,14.75-22.56,27.66-20.93,12.91,1.63,18.98,8.46,18.98,23.75v27.22c0,5.75-1.19,11.71-7.05,18.87-5.86,7.16-20.06,9.76-29.28,6.29-9.22-3.47-12.91-15.94-7.37-23.1,5.53-7.16,20.28-7.81,27-8.02,6.72-.22,9.87-2.28,9.87-8.35s-5.42-7.81-10.85-7.81-19.85.98-27.98,4.45c-8.13,3.47-19.85,9.11-22.77,22.02-2.93,12.91-.22,24.62,9.11,33.08,9.33,8.46,29.72,9.87,40.45,4.12,10.74-5.75,13.88-14.32,16.7-18.76s5.64-4.77,7.7-4.66,5.42,1.3,5.42,8.03v10.52c0,5.1,3.36,7.05,6.29,7.05s6.07-1.08,6.07-8.46v-71.79c0-17.57-17.03-29.61-30.8-32.1Z"/>
  <path d="M309.19,53.66c-20.98-3.16-30.45,9.14-35.3,17.03s-6.43,11.73-11.73,11.39c-5.3-.34-5.3-5.08-5.3-8.8v-11.96c0-3.83-2.26-6.09-6.54-6.09s-6.09,3.95-6.09,9.02v101.18h23.46v-61.25c0-20.75,11.96-31.24,25.83-31.24s23.57,8.23,23.57,26.39v66.1h23.91v-67.23c0-28.76-10.83-41.4-31.81-44.55Z"/>
  <path d="M441.36,82.88s-7.59-30.54-37.02-28.88-40.54,24.25-43.87,48.31c-3.33,24.06,5,46.28,15.73,56.46,10.74,10.18,26.9,11.13,38.75,8.43,11.85-2.7,16.11-11.42,22.18-21.62,2.28-3.82,4.77-7.31,8.53-7.31s6.7,1.93,6.7,7.31v11.67c0,5.48,2.84,9.95,6.19,9.95s6.13-2.26,6.13-9.79V13.28h-23.32v69.6ZM412.97,149.71c-16.54,0-28.5-14.07-28.63-38.63-.12-24.57,12.22-37.99,28.63-38.61,16.41-.62,28.5,11.48,29.25,37.64.74,26.16-14.44,39.61-29.25,39.61Z"/>
  <path d="M572.34,105.02c7.41-6.17,14.5-6.17,12.81-16.36s-19.29-35.04-53.09-35.04c-24.08,0-37.2,14.97-43.37,25.93s-6.48,18.37,0,20.84c6.48,2.47,11.27,5.64,11.11,11s-3.4,5.51-8.64,8.91c-5.25,3.4-7.72,5.25-6.17,13.89s14.2,34.31,49.93,34.31,45.92-24.75,49-32.46c3.09-7.72.15-13.12-6.48-16.21-6.64-3.09-12.5-8.64-5.09-14.82ZM534.99,149.71c-20.84,0-29.32-16.75-29.32-39.44s10.65-37.2,29.32-37.2c20.84,0,29.17,19.14,29.17,38.32s-8.33,38.32-29.17,38.32Z"/>
  <path d="M616.2,12.25c-6.79,0-11.25,5.31-11.25,12.31v14.92h23.42v-15.56c0-7.64-5.37-11.68-12.16-11.68Z"/>
  <path d="M604.95,56.63v108.7h23.42s-.29-108.99,0-108.7h-23.42Z"/>
  <path d="M974.17,12.25c-6.79,0-11.25,5.31-11.25,12.31v14.92h23.42v-15.56c0-7.64-5.37-11.68-12.16-11.68Z"/>
  <path d="M962.92,56.63v108.7h23.42s-.29-108.99,0-108.7h-23.42Z"/>
  <path d="M690.62,146.33c-7.74-3.67-6.25-13.17-6.25-22.95v-47.67h22.95v-19.08h-23.36v-17.14c0-10.23-2.04-15.8-11.82-15.8s-11.95,6.93-11.95,14.67v18.27h-14.67v18.94h24.58c6.65,0,8.15,3.8,8.15,6.25s-.68,5.16-4.75,8.83c-4.07,3.67-13.99,11.41-13.99,24.58v28.11c0,11.41,6.38,19.96,16.71,23.22,10.32,3.26,27.57.51,30.97-1.24l1.9-19.41s-10.73,4.07-18.47.41Z"/>
  <path d="M784.75,74.78c13.2,5.62,15.58,22.6,15.58,22.6l22.18-5.33s-1.54-17.97-17.13-29.62c-15.58-11.65-43.24-11.23-58.4-2.67s-21.2,20.64-23.72,28.78c-2.53,8.14.84,10.39,5.9,12.92,5.05,2.53,9.83,4.49,9.83,9.83s-3.79,6.32-8.42,8.98c-4.63,2.67-9.55,5.19-7.3,14.32s12.35,24.57,29.48,30.6c17.13,6.04,39.16,3.23,51.94-5.47,12.77-8.7,17.83-29.2,17.83-29.2l-21.9-5.9s-2.11,12.35-10.95,19.79c-8.84,7.44-26.88,6.51-34.25-1.68-12.63-14.04-13.62-35.8-7.58-52.08s23.72-21.48,36.92-15.86Z"/>
  <path d="M905.41,53.49c-12.95-1.53-26.8,4.26-34.11,17.35-7.31,13.1-10.36,20.71-19.49,15.99-9.14-4.72-1.52-14.16,2.28-17.97,3.81-3.81,11.27-12.95,11.27-29.39V13.28h-23.45s-.46,151.99,0,151.99h23.15v-60.92c0-22.24,11.88-31.07,24.98-31.07s25.28,9.29,25.28,26.2v65.79h23.61v-59.7c0-45.99-20.56-50.55-33.51-52.08Z"/>
</svg>