<?xml version="1.0" encoding="UTF-8"?>
<svg id="Layer_3" data-name="Layer 3" xmlns="http://www.w3.org/2000/svg" viewBox="0 0 1123.66 251.59">
  <path d="M93.6,112.07c-2.71-1.85-2.75-7.12,0-8.35s15.98-6.11,21.78-12.42c5.8-6.31,7.74-17.63,2.38-25.22-5.36-7.59-13.65-13.1-26.26-9.38s-32.56,15.04-41.5,21.29c-8.93,6.25-17.27,17.42-14.89,31.42s10.87,20.1,19.81,25.02,9.83,6.25,9.83,8.19-.45,3.87-5.96,6.7-18.32,7.3-22.04,16.23-1.34,19.95,6.4,25.17,14.59,7.15,27.1,1.04c12.51-6.11,32.46-16.38,40.21-22.49,7.74-6.11,11.17-18.32,9.38-28-1.79-9.68-5.66-14.74-11.76-19.51s-8.4-5.57-14.48-9.71Z"/>
  <path d="M168.26,57.74c-6.86-5.06-20.16-3.62-27.87,5.35s-7.56,21.42-1.42,28.19,38.9,31.65,42.99,35.27,5.98,5.2,5.98,10.55v16.38c0,5.2-4.88,6.3-7.72,6.3s-7.24-2.05-7.24-8.19v-7.24c0-4.57-3.15-12.91-9.61-17.48s-17.32-5.83-25.98,0-9.61,15.59-9.61,23.31v21.89c0,16.06,11.34,23.5,21.42,23.5h64.09c15.59,0,20.94-12.32,20.94-23.19v-45.35c0-13.39-.94-17.79-11.81-27.87-10.87-10.08-45.2-34.8-54.17-41.42Z"/>
  <path d="M292.26,62.58c-10.49-7.21-24.26-10-34.09-2.79-9.83,7.21-10.49,18.03-10.49,25.57v84.57c0,16.72,10,26.39,22.29,26.39s24.75-9.83,24.75-22.94v-42.94c0-7.7,3.44-10,7.7-10s7.54,2.46,7.54,9.34v43.76c0,15.41,14.42,22.78,23.93,22.78s23.27-7.05,23.27-23.27v-47.84c0-13.46-3.77-22.14-16.55-30.5-12.78-8.36-48.35-32.12-48.35-32.12Z"/>
  <path d="M423.21,121.97c-6.14,0-7.57-3.48-7.57-10.65v-30.71c0-12.69-5.94-25.04-21.5-25.04s-23.75,11.73-23.75,24.63v93.56c0,13.72,12.49,20.06,16.99,21.5s14.74,3.69,26.61-4.91,47.7-32.96,54.25-39.51,10.24-14.04,10.24-24.73V38.65c0-14.54-11.26-23.13-24.16-23.13s-23.54,9.83-23.54,25.59v71.67c0,9.61-4.5,9.2-7.57,9.2Z"/>
  <path d="M527.82,59.58c-9.56-5.44-20.28-6.43-27.86-.82s-8.57,11.37-8.57,24.73v88.53c0,19.29,14.34,24.63,24.07,24.63h56.22c14.01,0,23.08-10.62,23.08-24.14v-50.94c0-12.36-2.14-19.29-11.37-26.87s-55.56-35.11-55.56-35.11Z"/>
  <path d="M543.06,117.28c-6.35,0-7.67,6.43-7.67,10.06v23.9c0,5.44,5.11,8.57,7.67,8.57s7.83-1.65,7.83-8.08v-24.89c0-6.92-3.3-9.56-7.83-9.56Z"/>
  <path d="M631.07,72.48c-14,0-22.78,13.05-22.78,25.15v73.31c0,14.24,11.39,25.69,22.78,25.69s24.2-8.14,24.2-23.56v-74.5c0-20.88-14.47-26.1-24.2-26.1Z"/>
  <circle cx="631.8" cy="39.02" r="23.5"/>
  <path d="M1030.48,72.48c-14,0-22.78,13.05-22.78,25.15v73.31c0,14.24,11.39,25.69,22.78,25.69s24.2-8.14,24.2-23.56v-74.5c0-20.88-14.47-26.1-24.2-26.1Z"/>
  <circle cx="1031.2" cy="39.02" r="23.5"/>
  <path d="M727.55,55c-10.47,0-11.83-5.43-11.83-12.22s-.97-27.26-24.24-27.26-22.88,25.13-22.88,30.95v76.2c0,14.93,5.04,24.04,15.7,34.32s31.8,28.31,39.55,34.71,24.43,7.76,33.15-5.82.58-24.62-6.4-31.22c-6.98-6.59-25.79-22.77-32.18-28.83s-5.04-13.43-2.52-17.12,7.95-5.82,12.6-5.82h10.47c6.79,0,20.94-5.82,20.94-24.43s-17.26-23.46-22.3-23.46h-10.08Z"/>
  <path d="M796.12,55.14c-14.14,0-24.84,10.52-24.84,23.39v52.23c0,15.23,7.44,20.13,12.42,24.12s40.17,31.01,49.78,37.36c9.61,6.35,25.21,6.17,32.46-6.89,7.25-13.06,3.81-23.39-5.8-31.01-9.61-7.62-29.38-22.12-35.18-26.48s-9.97-11.97-7.8-18.68,8.89-7.62,15.05-7.62h17.95c7.62,0,24.3-4.17,24.3-21.04s-9.97-25.39-24.3-25.39h-54.04Z"/>
  <path d="M907.75,15.46c-18.61,0-22.43,15.92-22.43,25.34v127.39c0,18.84,11.44,28.13,23.55,28.13s23.1-9.29,23.1-23.64v-38.8c0-10.09,4.93-10.99,7.85-10.99s7.85,2.69,7.85,9.2v41.72c0,17.72,17.49,22.52,24.45,22.52s21.75-5.92,21.75-22.74v-49.34c0-13.68-1.57-17.94-11.21-27.14s-35.21-27.14-42.16-33.19c-6.95-6.06-8.3-11.44-8.3-17.49v-9.2c0-4.71-4.71-21.75-24.45-21.75Z"/>
</svg>